<?xml version="1.0" encoding="iso-8859-1"?>
<!-- Generator: Adobe Illustrator 19.0.0, SVG Export Plug-In . SVG Version: 6.00 Build 0)  -->
<svg version="1.1" id="Capa_1" xmlns="http://www.w3.org/2000/svg" xmlns:xlink="http://www.w3.org/1999/xlink" x="0px" y="0px"
	 viewBox="0 0 515.038 515.038" style="enable-background:new 0 0 515.038 515.038;" xml:space="preserve">
<g>
	<g>
		<g>
			<path d="M497.52,195.038h-48c-4.253-0.025-8.34,1.645-11.36,4.64l-27.2,27.36h-25.44v-16c0.237-24.093-17.423-44.628-41.28-48
				c37.016-37.958,36.253-98.737-1.706-135.754C304.576-9.732,243.797-8.968,206.781,28.99c-5.05,5.178-9.498,10.911-13.26,17.088
				C165.941,0.796,106.876-13.555,61.594,14.024C16.312,41.603,1.961,100.668,29.54,145.95c3.762,6.177,8.211,11.91,13.26,17.088
				c-23.857,3.372-41.517,23.907-41.28,48v256c0,26.51,21.49,48,48,48h288c26.51,0,48-21.49,48-48v-16h25.44l27.36,27.36
				c2.98,2.956,7.003,4.622,11.2,4.64h48c8.837,0,16-7.163,16-16v-256C513.52,202.201,506.357,195.038,497.52,195.038z
				 M273.52,35.038c35.346,0,64,28.654,64,64c0,35.346-28.654,64-64,64c-35.346,0-64-28.654-64-64
				C209.52,63.692,238.174,35.038,273.52,35.038z M193.52,151.998c2.607,3.886,5.495,7.575,8.64,11.04h-17.28
				C188.025,159.573,190.913,155.884,193.52,151.998z M113.52,35.038c35.346,0,64,28.654,64,64c0,35.346-28.654,64-64,64
				c-35.346,0-64-28.654-64-64C49.52,63.692,78.174,35.038,113.52,35.038z M481.52,451.038h-25.44l-27.36-27.36
				c-2.98-2.956-7.003-4.622-11.2-4.64h-48c-8.837,0-16,7.163-16,16v32c0,8.837-7.163,16-16,16h-288c-8.837,0-16-7.163-16-16v-256
				c0-8.837,7.163-16,16-16h288c8.837,0,16,7.163,16,16v160h32v-112h32c4.253,0.025,8.341-1.645,11.36-4.64l27.2-27.36h25.44
				V451.038z"/>
			<path d="M289.52,339.038h-192c-8.837,0-16,7.163-16,16v64c0,8.837,7.163,16,16,16h192c8.837,0,16-7.163,16-16v-64
				C305.52,346.201,298.357,339.038,289.52,339.038z"/>
			<rect x="81.52" y="259.038" width="32" height="32"/>
			<rect x="145.52" y="259.038" width="32" height="32"/>
			<rect x="209.52" y="259.038" width="96" height="32"/>
		</g>
	</g>
</g>
<g>
</g>
<g>
</g>
<g>
</g>
<g>
</g>
<g>
</g>
<g>
</g>
<g>
</g>
<g>
</g>
<g>
</g>
<g>
</g>
<g>
</g>
<g>
</g>
<g>
</g>
<g>
</g>
<g>
</g>
</svg>
